<svg id="svg" version="1.1" xmlns="http://www.w3.org/2000/svg" width="400" height="88.38074980058495" viewBox="0, 0, 400,88.38074980058495" xmlns:xlink="http://www.w3.org/1999/xlink"><g id="svgg"><path id="path0" d="M71.250 12.606 C 68.013 12.917,67.311 13.071,64.750 14.030 C 55.157 17.624,47.677 29.072,48.815 38.417 L 48.917 39.250 49.143 37.750 C 49.727 33.873,51.272 29.963,53.380 27.029 C 53.721 26.554,54.000 26.125,54.000 26.076 C 54.000 25.974,54.772 25.100,56.250 23.529 C 58.376 21.268,61.982 18.795,64.417 17.928 C 64.875 17.765,65.400 17.572,65.583 17.499 C 66.449 17.156,67.459 16.877,68.833 16.602 C 71.671 16.035,76.385 16.177,79.250 16.917 C 81.959 17.617,87.150 20.080,87.833 20.990 C 87.879 21.051,88.217 21.321,88.583 21.590 C 93.032 24.853,96.755 30.777,97.674 36.055 C 97.975 37.781,98.263 37.416,98.189 35.402 C 98.122 33.573,97.614 30.703,97.157 29.574 C 97.048 29.304,96.893 28.915,96.813 28.708 C 96.469 27.825,96.336 27.523,95.807 26.426 C 94.346 23.393,91.194 19.612,88.574 17.750 C 88.316 17.567,87.912 17.264,87.677 17.078 C 86.560 16.193,83.594 14.608,81.917 14.001 C 79.191 13.015,77.384 12.660,73.917 12.431 C 73.642 12.413,72.442 12.491,71.250 12.606 M21.833 21.357 C 18.127 22.010,14.111 23.699,12.547 25.262 C 12.416 25.393,12.241 25.500,12.157 25.500 C 11.905 25.500,8.592 28.863,8.070 29.649 C 7.802 30.052,7.374 30.689,7.117 31.066 C 6.861 31.442,6.561 31.938,6.451 32.167 C 6.289 32.503,6.242 31.599,6.206 27.458 L 6.162 22.333 4.498 22.333 L 2.833 22.333 2.833 54.167 L 2.833 86.000 4.500 86.000 L 6.167 86.000 6.167 71.130 L 6.167 56.260 6.785 57.255 C 7.125 57.802,7.482 58.330,7.577 58.429 C 7.672 58.527,7.936 58.879,8.163 59.211 C 9.786 61.579,14.137 64.921,17.000 65.997 C 17.321 66.118,17.828 66.309,18.127 66.423 C 18.697 66.639,20.405 67.030,22.069 67.325 C 34.746 69.574,46.994 58.358,46.995 44.500 C 46.995 33.727,40.766 25.179,30.500 21.865 C 28.808 21.318,23.740 21.022,21.833 21.357 M69.750 21.498 C 68.240 21.767,66.989 22.106,66.083 22.492 C 64.347 23.232,62.722 24.129,60.820 25.399 C 56.998 27.950,53.255 33.864,51.883 39.515 C 51.499 41.095,51.450 47.491,51.809 49.083 C 54.492 60.991,65.762 69.365,76.367 67.331 C 76.853 67.237,77.662 67.083,78.167 66.987 C 84.980 65.692,91.111 60.304,94.178 52.917 C 98.147 43.356,94.223 30.781,85.417 24.843 C 84.289 24.083,83.959 23.895,82.322 23.076 C 78.968 21.398,73.889 20.761,69.750 21.498 M123.319 21.236 C 123.281 21.274,122.650 21.388,121.917 21.490 C 119.541 21.820,114.547 23.870,113.833 24.809 C 113.787 24.869,113.323 25.236,112.800 25.625 C 110.967 26.988,108.847 29.356,107.585 31.448 L 107.001 32.417 107.000 27.375 L 107.000 22.333 105.250 22.333 L 103.500 22.333 103.500 54.167 L 103.500 86.000 105.250 86.000 L 107.000 86.000 107.002 71.208 L 107.003 56.417 107.445 57.167 C 109.019 59.835,112.138 62.962,114.750 64.489 C 116.252 65.367,116.610 65.548,117.819 66.035 C 123.217 68.212,129.636 67.933,135.165 65.282 C 139.754 63.082,143.828 58.670,146.047 53.500 C 148.410 47.992,148.378 40.732,145.966 35.250 C 145.603 34.425,145.266 33.619,145.217 33.458 C 145.168 33.298,145.062 33.167,144.981 33.167 C 144.900 33.167,144.833 33.080,144.833 32.975 C 144.833 32.789,143.284 30.281,142.927 29.889 C 142.830 29.782,142.225 29.101,141.583 28.375 C 138.237 24.588,133.795 22.205,128.481 21.345 C 127.429 21.175,123.465 21.091,123.319 21.236 M76.250 24.582 C 80.547 25.363,83.878 27.184,86.733 30.317 C 87.018 30.628,87.372 31.003,87.521 31.150 C 89.691 33.284,91.784 38.637,92.138 42.958 C 93.226 56.259,81.142 67.086,69.000 63.689 C 67.516 63.273,67.053 63.104,66.102 62.632 C 65.143 62.156,63.016 60.873,62.833 60.661 C 62.788 60.608,62.576 60.445,62.364 60.301 C 61.795 59.911,60.127 58.281,59.569 57.568 C 59.302 57.227,58.927 56.753,58.735 56.516 C 57.300 54.733,55.857 51.414,55.142 48.250 C 54.639 46.018,54.923 40.704,55.665 38.500 C 55.995 37.519,56.738 35.570,56.840 35.417 C 56.901 35.325,57.234 34.729,57.580 34.092 C 57.926 33.455,58.312 32.831,58.439 32.704 C 58.565 32.578,58.751 32.321,58.851 32.134 C 59.105 31.659,59.746 30.919,60.916 29.749 C 63.843 26.822,66.630 25.376,71.000 24.516 C 72.181 24.284,74.791 24.317,76.250 24.582 M28.675 24.979 C 35.399 26.472,40.308 31.217,42.836 38.667 C 44.075 42.316,43.724 48.517,42.065 52.275 C 41.938 52.564,41.833 52.836,41.833 52.880 C 41.833 53.891,38.436 58.305,36.417 59.918 C 35.958 60.284,35.546 60.623,35.500 60.672 C 33.861 62.419,28.802 64.000,24.853 64.000 C 23.534 64.000,22.184 63.929,21.853 63.843 C 21.521 63.757,20.762 63.565,20.167 63.415 C 19.571 63.266,18.858 63.045,18.583 62.923 C 18.308 62.801,17.708 62.535,17.250 62.331 C 15.779 61.675,13.621 60.134,12.246 58.756 C 11.110 57.619,10.655 57.082,9.546 55.575 C 9.129 55.009,8.216 53.225,7.673 51.917 C 1.794 37.749,14.247 21.776,28.675 24.979 M129.167 24.926 C 137.939 26.745,144.313 34.953,144.330 44.450 C 144.332 45.477,144.257 46.714,144.164 47.200 C 143.711 49.563,143.434 50.764,143.306 50.908 C 143.230 50.995,143.167 51.162,143.167 51.278 C 143.167 51.492,142.480 53.135,142.133 53.750 C 142.030 53.933,141.746 54.443,141.504 54.882 C 141.261 55.321,140.955 55.810,140.823 55.968 C 140.691 56.127,140.365 56.555,140.098 56.920 C 138.023 59.755,133.916 62.531,130.500 63.408 C 129.904 63.561,129.145 63.757,128.814 63.843 C 128.032 64.047,123.301 64.047,122.519 63.843 C 122.188 63.757,121.429 63.561,120.833 63.408 C 119.715 63.121,117.126 62.024,117.028 61.796 C 116.997 61.725,116.902 61.667,116.816 61.667 C 116.316 61.667,114.097 59.940,112.533 58.333 C 104.410 49.988,105.286 36.165,114.417 28.624 C 115.288 27.904,117.309 26.659,118.297 26.233 C 118.821 26.007,119.400 25.756,119.583 25.676 C 121.787 24.711,126.392 24.351,129.167 24.926 " stroke="none" fill="#f25297" fill-rule="evenodd"></path><path id="path1" d="M156.333 34.500 L 156.333 66.333 158.083 66.333 L 159.833 66.333 159.833 34.500 L 159.833 2.667 158.083 2.667 L 156.333 2.667 156.333 34.500 M269.167 32.056 C 269.167 44.539,269.227 51.623,269.339 52.264 C 269.989 55.983,270.943 58.378,272.745 60.815 C 272.840 60.942,273.517 61.660,274.250 62.411 C 281.490 69.824,295.102 69.019,301.257 60.815 C 303.923 57.261,304.825 53.993,304.830 47.875 L 304.833 44.167 303.189 44.167 L 301.544 44.167 301.448 48.208 C 301.350 52.351,301.269 52.941,300.503 55.083 C 299.991 56.516,299.769 57.000,299.626 57.000 C 299.557 57.000,299.500 57.084,299.500 57.187 C 299.500 57.758,297.348 60.213,295.744 61.471 C 295.075 61.995,292.791 63.068,291.667 63.386 C 289.668 63.951,289.297 64.000,287.064 63.998 C 280.554 63.994,275.912 60.884,273.506 54.917 C 273.432 54.733,273.279 54.246,273.166 53.833 C 273.053 53.421,272.881 52.858,272.783 52.583 C 272.664 52.250,272.583 47.642,272.539 38.792 L 272.473 25.500 287.903 25.500 L 303.333 25.500 303.333 23.917 L 303.333 22.333 287.917 22.333 L 272.500 22.333 272.500 17.583 L 272.500 12.833 270.833 12.833 L 269.167 12.833 269.167 32.056 M237.000 21.156 C 235.210 21.410,234.174 21.666,232.917 22.166 C 229.450 23.545,226.330 25.987,224.650 28.636 L 224.167 29.399 224.167 25.699 L 224.167 22.000 222.500 22.000 L 220.833 22.000 220.833 44.167 L 220.833 66.333 222.500 66.333 L 224.167 66.333 224.170 52.625 C 224.173 38.120,224.203 37.448,224.969 35.082 C 226.282 31.028,229.039 27.815,232.750 26.014 C 234.254 25.284,234.899 25.081,237.532 24.505 C 239.213 24.137,242.223 24.330,245.083 24.989 C 246.103 25.224,248.734 26.491,249.417 27.076 C 250.851 28.305,252.833 30.622,252.833 31.070 C 252.833 31.118,253.012 31.553,253.231 32.037 C 254.730 35.356,254.833 36.712,254.833 53.112 L 254.833 66.333 256.423 66.333 L 258.013 66.333 257.954 50.708 C 257.907 38.503,257.847 34.919,257.677 34.333 C 256.218 29.297,253.915 25.614,251.260 24.072 C 250.980 23.909,250.713 23.732,250.667 23.679 C 250.150 23.085,247.422 21.988,245.167 21.469 C 243.602 21.108,238.672 20.919,237.000 21.156 M186.833 21.490 C 184.081 21.973,179.718 23.792,178.529 24.953 C 178.407 25.072,178.154 25.251,177.967 25.351 C 177.103 25.813,174.546 28.327,173.492 29.750 C 173.085 30.300,172.708 30.787,172.653 30.833 C 172.155 31.255,170.399 34.832,169.782 36.683 C 169.388 37.866,169.275 38.292,168.807 40.333 C 168.677 40.900,168.598 42.458,168.599 44.417 C 168.602 47.835,168.695 48.476,169.724 52.127 C 169.950 52.930,171.583 56.471,171.817 56.667 C 171.872 56.712,172.289 57.313,172.744 58.000 C 173.877 59.713,176.582 62.377,178.452 63.621 C 179.819 64.531,180.573 64.936,182.667 65.880 C 185.794 67.290,190.846 67.857,194.833 67.247 C 197.579 66.827,198.228 66.661,200.333 65.839 C 201.820 65.259,202.167 65.093,202.167 64.959 C 202.167 64.890,202.245 64.833,202.341 64.833 C 202.504 64.833,204.039 63.903,204.623 63.451 C 204.960 63.189,207.856 60.293,208.121 59.952 C 208.981 58.847,210.482 56.112,211.159 54.417 C 211.232 54.233,211.376 53.874,211.479 53.617 C 211.911 52.544,211.849 52.500,209.917 52.500 C 208.750 52.500,208.167 52.561,208.167 52.684 C 208.167 52.938,206.538 56.269,206.284 56.535 C 206.171 56.653,205.938 56.970,205.765 57.239 C 204.249 59.605,201.811 61.436,198.083 63.010 C 196.606 63.634,194.109 64.000,191.333 64.000 C 187.266 64.000,184.592 63.303,181.294 61.385 C 180.720 61.051,180.213 60.733,180.167 60.679 C 180.121 60.626,179.783 60.365,179.417 60.101 C 176.875 58.272,174.122 54.370,172.995 51.000 C 172.309 48.952,172.169 48.245,172.059 46.292 L 171.949 44.333 192.333 44.333 L 212.717 44.333 212.604 42.480 C 212.501 40.786,211.921 37.820,211.474 36.705 C 211.374 36.455,211.234 36.100,211.164 35.917 C 210.644 34.562,208.848 31.116,208.513 30.833 C 208.459 30.787,208.191 30.450,207.919 30.083 C 206.671 28.408,205.044 26.748,203.583 25.662 C 203.033 25.253,202.546 24.871,202.500 24.813 C 202.373 24.651,199.106 22.833,198.943 22.833 C 198.865 22.833,198.564 22.727,198.275 22.597 C 195.361 21.286,190.613 20.826,186.833 21.490 M328.833 21.503 C 327.399 21.771,326.154 22.113,325.250 22.488 C 325.067 22.565,324.579 22.763,324.167 22.929 C 323.754 23.096,323.218 23.367,322.974 23.533 C 322.731 23.698,322.462 23.833,322.376 23.833 C 322.128 23.833,319.328 25.820,318.521 26.569 C 316.729 28.231,314.500 30.858,314.500 31.307 C 314.500 31.413,314.438 31.500,314.361 31.500 C 314.240 31.500,312.677 34.511,312.328 35.417 C 311.561 37.406,311.236 38.633,310.827 41.083 C 310.606 42.409,310.702 47.415,310.975 48.750 C 311.508 51.363,311.809 52.338,312.687 54.294 C 313.107 55.231,314.354 57.481,314.693 57.915 C 316.846 60.669,317.408 61.230,320.260 63.482 C 320.358 63.559,320.620 63.718,320.844 63.836 C 321.067 63.954,321.287 64.095,321.333 64.150 C 321.807 64.718,326.193 66.524,328.000 66.894 C 330.560 67.419,331.271 67.500,333.287 67.500 C 337.915 67.500,343.917 65.848,345.958 64.012 C 346.119 63.868,346.550 63.529,346.917 63.258 C 347.689 62.688,349.349 61.013,349.980 60.167 C 350.219 59.846,350.459 59.546,350.513 59.500 C 351.221 58.902,353.799 53.558,353.829 52.625 C 353.841 52.260,350.390 52.499,350.217 52.875 C 349.697 54.001,348.574 56.262,348.499 56.333 C 348.451 56.379,348.113 56.857,347.748 57.396 C 347.019 58.469,345.132 60.307,344.083 60.965 C 343.717 61.195,343.379 61.432,343.333 61.491 C 342.905 62.044,339.397 63.340,337.029 63.820 C 335.884 64.052,330.882 64.053,329.865 63.822 C 327.648 63.316,326.811 63.062,325.696 62.555 C 325.025 62.250,324.446 62.000,324.410 62.000 C 324.323 62.000,321.942 60.470,321.833 60.344 C 321.787 60.291,321.453 60.026,321.089 59.755 C 320.259 59.135,319.439 58.315,318.583 57.248 C 318.217 56.791,317.870 56.379,317.812 56.333 C 317.579 56.148,316.164 53.616,315.745 52.633 C 315.498 52.056,315.230 51.433,315.150 51.250 C 314.782 50.408,314.173 47.429,314.069 45.958 L 313.954 44.333 334.335 44.333 L 354.717 44.333 354.610 42.125 C 354.499 39.835,354.349 39.097,353.486 36.603 C 352.894 34.891,351.670 32.295,351.317 32.000 C 351.262 31.954,351.130 31.751,351.023 31.549 C 350.351 30.273,345.991 25.500,345.497 25.500 C 345.420 25.500,345.258 25.402,345.137 25.281 C 344.809 24.956,343.110 23.833,342.945 23.833 C 342.866 23.833,342.602 23.695,342.359 23.527 C 339.590 21.606,333.307 20.666,328.833 21.503 M374.417 21.498 C 371.947 21.898,370.356 22.444,367.833 23.761 C 367.183 24.100,367.255 24.048,366.019 25.073 C 363.579 27.097,362.284 29.489,362.064 32.379 C 361.897 34.562,362.457 37.122,363.285 37.970 C 363.403 38.091,363.500 38.251,363.500 38.325 C 363.500 38.512,364.604 39.628,365.503 40.351 C 367.377 41.858,370.677 43.079,374.500 43.680 C 375.188 43.788,376.125 43.941,376.583 44.020 C 377.042 44.099,377.867 44.235,378.417 44.322 C 381.180 44.761,381.651 44.842,382.500 45.022 C 383.004 45.129,383.829 45.324,384.333 45.455 C 384.837 45.586,385.625 45.789,386.083 45.905 C 397.060 48.693,397.388 60.161,386.582 63.323 C 383.602 64.195,381.964 64.403,379.072 64.275 C 376.300 64.153,375.405 64.022,372.692 63.340 C 368.345 62.247,364.736 58.940,363.405 54.830 L 362.975 53.500 361.319 53.500 L 359.663 53.500 359.767 54.208 C 359.972 55.593,361.319 59.154,361.695 59.306 C 361.771 59.336,361.833 59.467,361.833 59.597 C 361.833 59.727,361.903 59.833,361.989 59.833 C 362.074 59.833,362.190 59.977,362.245 60.152 C 362.942 62.348,369.088 66.023,373.417 66.833 C 388.001 69.560,399.303 63.178,397.857 53.031 C 397.601 51.229,396.839 48.955,396.340 48.500 C 396.289 48.454,396.025 48.117,395.753 47.750 C 395.131 46.911,394.755 46.536,393.917 45.913 C 393.550 45.641,393.212 45.374,393.167 45.321 C 393.004 45.129,391.071 44.070,390.333 43.767 C 389.921 43.598,389.433 43.398,389.250 43.322 C 388.561 43.036,387.214 42.629,386.167 42.390 C 385.571 42.254,384.783 42.072,384.417 41.987 C 383.157 41.693,382.080 41.492,380.417 41.239 C 375.055 40.425,373.506 40.096,370.833 39.205 C 367.562 38.115,366.093 36.754,365.586 34.345 C 364.754 30.390,368.124 26.345,373.321 25.060 C 380.454 23.297,387.030 24.756,390.807 28.941 C 391.773 30.012,393.333 32.761,393.333 33.394 C 393.333 33.629,393.573 33.667,395.083 33.667 C 397.031 33.667,397.030 33.667,396.653 32.483 C 396.335 31.484,395.066 28.691,394.844 28.500 C 394.791 28.454,394.549 28.117,394.307 27.750 C 390.992 22.722,382.784 20.142,374.417 21.498 M194.000 24.921 C 197.970 25.729,202.275 28.399,204.805 31.625 C 205.363 32.335,207.000 34.786,207.000 34.910 C 207.000 34.946,207.262 35.543,207.582 36.236 C 207.902 36.929,208.233 37.778,208.317 38.123 C 208.402 38.468,208.590 39.185,208.735 39.716 C 208.881 40.248,209.000 40.792,209.000 40.925 C 209.000 41.135,206.566 41.167,190.572 41.167 C 173.099 41.167,172.149 41.152,172.233 40.875 C 172.281 40.715,172.399 40.228,172.494 39.793 C 173.419 35.572,176.301 30.908,179.424 28.577 C 179.787 28.306,180.121 28.041,180.167 27.987 C 180.287 27.846,182.809 26.333,182.925 26.333 C 182.978 26.333,183.433 26.145,183.936 25.915 C 184.439 25.685,185.316 25.379,185.884 25.235 C 186.452 25.091,187.142 24.912,187.417 24.837 C 188.315 24.592,192.656 24.648,194.000 24.921 M336.342 24.981 C 338.081 25.370,338.183 25.407,340.500 26.466 C 345.420 28.714,350.208 35.103,351.049 40.542 L 351.146 41.167 332.736 41.167 L 314.327 41.167 314.405 40.792 C 314.750 39.136,315.079 37.928,315.426 37.039 C 315.905 35.812,316.525 34.452,316.659 34.333 C 316.711 34.287,316.902 33.961,317.085 33.609 C 317.493 32.819,319.727 30.097,320.525 29.417 C 320.848 29.142,321.302 28.757,321.535 28.561 C 325.341 25.363,331.446 23.887,336.342 24.981 M71.417 34.933 C 65.001 36.667,62.121 45.356,66.312 50.333 C 68.008 52.348,69.852 53.482,72.385 54.070 C 74.116 54.471,74.853 54.430,77.000 53.810 C 80.360 52.841,82.993 49.888,83.745 46.247 C 84.214 43.980,84.074 43.540,83.159 44.392 C 81.036 46.371,77.299 46.307,75.026 44.253 C 72.683 42.137,72.582 38.022,74.816 35.708 C 75.192 35.318,75.500 34.924,75.500 34.833 C 75.500 34.589,72.410 34.665,71.417 34.933 " stroke="none" fill="#2c2c2c" fill-rule="evenodd"></path></g></svg>