<?xml version="1.0" encoding="UTF-8"?>
<svg width="178px" height="58px" viewBox="0 0 178 58" version="1.1" xmlns="http://www.w3.org/2000/svg" xmlns:xlink="http://www.w3.org/1999/xlink">
    <title>A2206BBE-EFBF-406E-B282-2311B1C15EB2</title>
    <g id="Act-Now-Site-Final" stroke="none" stroke-width="1" fill="none" fill-rule="evenodd">
        <g id="Act-Now-COVID-19-Visual-Design-IN-PROGRESS" transform="translate(-132.000000, -3656.000000)" fill-rule="nonzero">
            <g id="actnow-logotype" transform="translate(132.000000, 3656.000000)">
                <path d="M74.82939,8.33444106 L74.82939,0.210345417 L68.3682138,0.210345417 L68.3682138,15.3591842 C70.0495042,12.6233964 72.2434157,10.2381241 74.82939,8.33444106 L74.82939,8.33444106 Z" id="Path" fill="#3873FF"></path>
                <path d="M68.3682138,42.0809898 L68.3682138,48.1849757 L33.1393252,0.210345417 L25.6462658,0.210345417 L25.6462658,57.2298286 L32.107442,57.2298286 L32.107442,9.08255637 L67.3343462,57.2298286 L74.82939,57.2298286 L74.82939,49.1097018 C72.2434659,47.2043673 70.049614,44.8178121 68.3682138,42.0809898 Z" id="Path" fill="#3873FF"></path>
                <path d="M103.597102,0.210345417 L96.7926266,0.210345417 L98.3563265,5.23283835 C101.494081,6.33521345 104.350964,8.11424514 106.724502,10.4438484 L103.597102,0.210345417 Z" id="Path" fill="#3873FF"></path>
                <path d="M170.951293,0.210345417 L156.308473,48.0996469 L140.977071,0.210345417 L133.56934,0.210345417 L118.237937,48.0996469 L113.808777,33.6135946 C113.26387,36.9700709 112.000075,40.1691574 110.10392,42.9918251 L114.535064,57.2337974 L121.857466,57.2337974 L137.274197,9.34052716 L152.690929,57.2298286 L160.013331,57.2298286 L177.755768,0.210345417 L170.951293,0.210345417 Z" id="Path" fill="#3873FF"></path>
                <path d="M89.5277721,6.98902415 C95.850041,6.98902415 101.041869,9.10570759 105.103255,13.3390745 C109.072036,17.4401487 111.056427,22.5684758 111.056427,28.7240558 C111.056427,34.8796358 109.072036,40.0073015 105.103255,44.1070527 C101.043192,48.3404196 95.8513639,50.4571031 89.5277721,50.4571031 C83.2041804,50.4571031 78.0116913,48.3404196 73.9503049,44.1070527 C69.9815235,40.0059786 67.9971327,34.8783129 67.9971327,28.7240558 C67.9971327,22.5697987 69.9815235,17.4414716 73.9503049,13.3390745 C78.0103683,9.10570759 83.2028574,6.98902415 89.5277721,6.98902415 Z M89.5277721,45.7699754 C94.5681246,45.7699754 98.6486934,44.1249123 101.769479,40.8347924 C104.759294,37.6729965 106.254863,33.6347614 106.256187,28.720087 C106.257509,23.8054127 104.76194,19.7704848 101.769479,16.6153036 C98.6500163,13.3185691 94.5694475,11.6695404 89.5277721,11.6682167 C84.4860968,11.6668946 80.4048665,13.3126159 77.2840813,16.6053816 C74.2916201,19.7685004 72.796051,23.8034283 72.797373,28.7101651 C72.7986968,33.6169019 74.294266,37.655137 77.2840813,40.8248705 C80.3982519,44.1242508 84.4794821,45.772618 89.5277721,45.7699754 Z" id="Shape" fill="#F7C96B"></path>
                <circle id="Oval" fill="#F7C96B" cx="89.5317409" cy="28.8133534" r="19.6970624"></circle>
                <path d="M20.5682099,37.6042043 L20.5682099,40.152162 L14.6725851,42.6386036 L14.6725851,52.7074022 L20.5682099,55.1938437 L20.5682099,57.7457702 L0.24606445,49.1156549 L0.24606445,46.236304 L20.5682099,37.6042043 Z M12.5552401,43.529595 L2.6332865,47.6730029 L12.5552401,51.8164107 L12.5552401,43.529595 Z" id="Shape" fill="#3873FF"></path>
                <path d="M18.5719128,26.368584 C18.6390987,23.6360848 17.0140451,21.1452305 14.4860523,20.1058469 L14.4860523,17.6809214 C16.3179623,18.2899365 17.9096269,19.4640584 19.0322915,21.0345417 C20.2229259,22.6908465 20.8182431,24.6448099 20.8182431,26.8964319 C20.8182431,29.8650805 19.8055424,32.270162 17.7801409,34.1116766 C15.8314692,35.8447112 13.3734706,36.7112285 10.406145,36.7112285 C7.43881938,36.7112285 4.98280512,35.8427268 3.03810221,34.1057235 C1.01270074,32.2628859 0,29.8578044 0,26.8904788 C0,24.6415026 0.595317219,22.6875392 1.78595166,21.0285886 C2.90687108,19.4610807 4.4956843,18.2890965 6.32425325,17.6809214 L6.32425325,20.1058469 C3.79666222,21.1454051 2.17229834,23.6364121 2.24037713,26.368584 C2.24037713,27.8238039 2.45006109,29.0316364 2.86942899,29.9920815 C3.26392122,30.917124 3.85585689,31.7447503 4.60378649,32.417007 C6.09737125,33.7399341 8.03149074,34.4013977 10.406145,34.4013977 C12.7807992,34.4013977 14.7149187,33.7399341 16.2085035,32.417007 C17.7841097,31.0252876 18.5719128,29.0091466 18.5719128,26.368584 Z" id="Path" fill="#3873FF"></path>
                <polygon id="Path" fill="#3873FF" points="2.45667572 0 2.45667572 7.09022808 20.5682099 7.09022808 20.5682099 9.39410571 2.45667572 9.39410571 2.45667572 16.4843338 0.24606445 16.4843338 0.24606445 0"></polygon>
            </g>
        </g>
    </g>
</svg>